<?xml version="1.0" encoding="utf-8"?>
<svg viewBox="0 0 1049 1280" xmlns="http://www.w3.org/2000/svg">
  <g transform="matrix(0.1, 0, 0, -0.1, 0, 1280)" fill="#000000" stroke="none">
    <path d="M 6062.975 12240.325 C 5375.465 12197.93 4698.175 12038.488 4070.125 11771.214 C 3806.27 11659.696 3311.077 11396.109 3154.994 11284.591 C 3134.555 11270.766 3054.655 11213.625 2977.542 11159.249 C 2811.239 11043.123 2637.504 10905.799 2493.498 10779.535 C 2342.06 10646.82 2145.098 10462.493 2123.729 10433.923 C 2113.51 10420.098 2065.198 10365.722 2016.887 10313.188 C 880.637 9076.355 330.63 7407.276 508.081 5734.51 C 650.229 4389.846 1247.619 3145.64 2212.92 2187.14 C 2830.75 1574.254 3540.557 1121.731 4363.711 817.592 C 4740.912 678.425 5167.354 570.594 5575.214 513.453 C 5892.026 469.214 6049.039 459.076 6411.375 459.076 C 6758.846 458.155 6893.561 466.449 7163.919 500.55 C 7242.89 510.688 7333.009 521.747 7363.669 523.591 C 7394.328 526.356 7476.086 541.102 7544.837 555.848 C 8201.687 703.309 8564.024 825.887 9054.571 1066.433 C 9413.191 1242.465 9678.904 1403.751 9983.638 1630.473 C 10226.125 1811.114 10248.423 1835.998 10203.827 1880.236 C 10188.033 1895.904 10163.877 1898.669 9987.355 1903.277 C 8368.919 1950.28 6841.533 2676.528 5764.744 3909.674 C 4664.728 5170.47 4169.535 6864.434 4414.809 8527.062 C 4617.346 9903.983 5315.075 11157.405 6388.148 12074.431 C 6495.92 12166.595 6494.991 12164.751 6494.991 12196.087 C 6494.991 12244.012 6474.551 12250.463 6322.184 12249.542 C 6246.001 12248.62 6129.867 12244.012 6062.975 12240.325 Z" style="paint-order: stroke; stroke: rgb(49, 90, 143); fill: rgba(255, 255, 255, 0); stroke-width: 500px;"/>
  </g>
</svg>